<svg xmlns="http://www.w3.org/2000/svg" width="74.039" height="59.082" viewBox="0 0 74.039 59.082">
  <path id="Icon_awesome-arrow-right" data-name="Icon awesome-arrow-right" d="M31.48,6.6l3.668-3a4.589,4.589,0,0,1,5.6,0L72.874,29.888a2.839,2.839,0,0,1,0,4.586L40.75,60.775a4.589,4.589,0,0,1-5.6,0l-3.668-3a2.858,2.858,0,0,1,.066-4.64L51.458,37.6H3.966C1.768,37.6,0,36.152,0,34.353V30.023c0-1.8,1.768-3.247,3.966-3.247H51.458L31.546,11.245A2.841,2.841,0,0,1,31.48,6.6Z" transform="translate(0 -2.647)" fill="#03a66a"/>
</svg>