<?xml version="1.0" encoding="UTF-8" standalone="no"?>
<svg
   xmlns:dc="http://purl.org/dc/elements/1.1/"
   xmlns:cc="http://creativecommons.org/ns#"
   xmlns:rdf="http://www.w3.org/1999/02/22-rdf-syntax-ns#"
   xmlns:svg="http://www.w3.org/2000/svg"
   xmlns="http://www.w3.org/2000/svg"
   width="207.45874mm"
   height="110.11035mm"
   viewBox="0 0 207.45874 110.11035"
   version="1.1"
   id="svg8">
  <defs
     id="defs2" />
  <metadata
     id="metadata5">
    <rdf:RDF>
      <cc:Work
         rdf:about="">
        <dc:format>image/svg+xml</dc:format>
        <dc:type
           rdf:resource="http://purl.org/dc/dcmitype/StillImage" />
        <dc:title></dc:title>
      </cc:Work>
    </rdf:RDF>
  </metadata>
  <g
     id="layer1"
     transform="translate(0.87524971,-68.484958)">
    <g
       id="g917"
       transform="translate(0,-6.8792598)">
      <path
         style="fill:#f9b312;stroke-width:0.169333"
         d="m 136.96817,155.34763 c -0.46567,-0.21583 -1.85632,-0.7958 -3.09034,-1.28883 -1.23401,-0.49302 -2.24366,-0.94624 -2.24366,-1.00715 0,-0.0609 0.5773,-0.68035 1.28288,-1.37652 1.58895,-1.56774 3.34471,-3.72817 5.05394,-6.21876 1.20738,-1.75935 1.7689,-2.33847 1.55974,-1.60867 -0.53326,1.86067 -1.10571,6.14026 -1.23445,9.22867 -0.073,1.75079 -0.17477,2.66643 -0.29631,2.66534 -0.10183,-8.4e-4 -0.56614,-0.17824 -1.0318,-0.39408 z m 1.10066,-1.59497 c 0,-2.41782 0.62224,-7.54188 1.12056,-9.22763 0.1642,-0.55546 -0.18811,-0.2975 -0.69421,0.50831 -1.02221,1.62755 -3.4735,4.74439 -4.99853,6.35568 -0.86256,0.91135 -1.53923,1.67682 -1.50372,1.70105 0.0355,0.0242 0.97897,0.40336 2.09657,0.84249 1.1176,0.43913 2.413,0.98209 2.87867,1.20659 0.46566,0.22449 0.90381,0.41418 0.97366,0.42153 0.0699,0.007 0.127,-0.80626 0.127,-1.80802 z m -54.251979,-4.35375 c -4.209128,-1.73049 -9.463341,-7.44825 -14.242995,-15.49954 -1.195258,-2.01341 -7.19344,-13.97604 -7.195733,-14.35101 -6.77e-4,-0.11641 0.08546,-0.21166 0.191488,-0.21166 0.106031,0 1.420481,0.64087 2.921,1.42416 8.607715,4.49331 14.427001,6.51678 16.817097,5.84759 2.209296,-0.61856 6.754137,-4.70483 11.656379,-10.48025 3.247704,-3.82617 3.253493,-3.83253 3.377703,-3.70832 0.115324,0.11532 -0.256942,6.54877 -0.6768,11.69637 -0.928851,11.38801 -3.953074,20.77489 -7.857879,24.39005 -1.495399,1.38448 -3.097049,1.67097 -4.99026,0.89261 z m 2.927069,0.0669 c 1.680793,-0.36047 3.133732,-1.93754 4.824903,-5.23714 3.228726,-6.29948 4.737654,-14.142 5.440917,-28.27867 0.05328,-1.07103 0.134727,-2.19498 0.180989,-2.49767 0.04626,-0.30268 0.01263,-0.55033 -0.07475,-0.55033 -0.08737,0 -1.013876,1.00965 -2.058895,2.24367 -5.630522,6.64884 -9.223985,10.05832 -11.941281,11.3299 -1.043083,0.48811 -1.223596,0.52033 -2.423993,0.43265 -2.684405,-0.19607 -6.572682,-1.656 -13.296987,-4.9926 -2.502136,-1.24156 -4.590985,-2.21574 -4.641885,-2.16484 -0.104841,0.10484 3.255891,7.08952 5.137425,10.67722 3.334952,6.35907 6.985146,11.46711 10.784477,15.09166 2.505935,2.39066 5.315333,4.1022 6.765321,4.12157 0.251532,0.003 0.838223,-0.0756 1.303758,-0.17542 z m 32.10558,0.19252 c -0.86291,-0.21007 -1.50247,-0.62433 -2.33044,-1.50951 -3.28738,-3.51447 -5.95651,-11.25058 -7.1365,-20.68415 -0.14562,-1.16417 -0.41657,-4.47887 -0.60211,-7.366 -0.18555,-2.88714 -0.37727,-5.75912 -0.42606,-6.38219 -0.0488,-0.62308 -0.0235,-1.17317 0.0562,-1.22244 0.0797,-0.0493 0.86062,0.76531 1.73534,1.81019 5.10354,6.09629 9.33025,10.28467 11.76609,11.65937 0.50423,0.28457 0.91677,0.61616 0.91677,0.73688 0,0.28866 0.7614,0.47303 1.14096,0.27628 0.1641,-0.0851 0.93667,-0.23723 1.71681,-0.33814 2.71414,-0.35106 7.65671,-2.32713 14.04652,-5.61587 1.80177,-0.92734 3.34549,-1.68608 3.43049,-1.68608 0.085,0 0.15456,0.086 0.15456,0.19117 0,0.41858 -6.31951,12.90939 -7.62498,15.07114 -3.77908,6.25782 -8.09493,11.26661 -11.81326,13.70997 -2.03585,1.33778 -3.48327,1.72604 -5.03043,1.34938 z M 12.129689,134.87459 c 0.02754,-2.98767 -0.666438,-4.84964 -2.4797549,-6.65328 -1.6255818,-1.6169 -3.3266141,-2.27509 -5.8888867,-2.2786 l -1.4657769,-0.002 -0.1186037,-0.86235 c -0.2235893,-1.62569 0.2976519,-5.04179 1.1286426,-7.39686 1.7170738,-4.8663 5.2819627,-9.53144 10.4043656,-13.61552 3.86441,-3.08109 9.364325,-5.698208 14.251018,-6.781308 1.341768,-0.297393 2.219719,-0.367329 4.698133,-0.374242 3.730471,-0.0104 5.449254,0.33175 8.186908,1.629753 1.214088,0.575633 1.184954,0.422945 0.462489,2.423857 -0.518667,1.43648 -0.589394,3.56835 -0.166111,5.00693 0.758039,2.57631 3.065661,4.86559 5.806999,5.76086 0.615477,0.201 1.179276,0.42006 1.252889,0.48681 0.07361,0.0667 -0.184233,0.33183 -0.572989,0.5891 -1.06742,0.70639 -2.16238,1.77204 -2.60974,2.53989 -0.220162,0.3779 -0.757817,1.67768 -1.194789,2.88841 -2.093177,5.79964 -4.858522,12.05174 -6.271287,14.17859 -0.374652,0.56402 -0.873749,1.07927 -1.191481,1.23005 -1.481495,0.70301 -9.337032,1.21038 -15.810222,1.02114 -3.546792,-0.10369 -3.886882,-0.0874 -4.922881,0.23592 -0.612084,0.19102 -1.564584,0.63809 -2.116667,0.9935 -0.552082,0.35541 -1.092895,0.70013 -1.201807,0.76606 -0.146899,0.0889 -0.193484,-0.37235 -0.180448,-1.7867 z m 1.648469,0.60178 c 0.325967,-0.22033 1.076943,-0.55099 1.668837,-0.7348 0.991259,-0.30784 1.585808,-0.33442 7.535335,-0.33688 7.984968,-0.003 12.074442,-0.29611 13.366796,-0.95703 1.234391,-0.63127 4.363844,-7.21292 7.382353,-15.52606 0.971132,-2.67455 1.655124,-3.71977 3.118584,-4.76557 0.521314,-0.37253 0.951502,-0.72857 0.955971,-0.7912 0.0045,-0.0626 -0.277624,-0.20523 -0.626874,-0.31689 -2.390267,-0.76419 -4.635205,-2.62169 -5.671129,-4.69238 -1.258506,-2.51561 -1.226133,-4.67181 0.118057,-7.863123 0.242045,-0.574653 -2.991979,-1.834786 -5.792001,-2.256842 -4.868435,-0.733839 -10.076196,0.284017 -15.744174,3.077195 -4.56855,2.25138 -8.50177,5.31768 -11.6957609,9.11791 -3.9701139,4.72366 -5.961328,9.56588 -5.961328,14.4967 v 1.84397 H 3.92609 c 2.4804625,0 4.3900555,0.75515 5.955559,2.35513 1.726173,1.7642 2.667065,4.42897 2.477735,7.01739 l -0.09722,1.32918 0.461666,-0.29805 c 0.253916,-0.16393 0.728365,-0.47833 1.054332,-0.69865 z m 179.701962,-1.069 c 0,-0.32597 0.0349,-0.45932 0.0774,-0.29634 0.0426,0.16299 0.0426,0.42969 0,0.59267 -0.0426,0.16298 -0.0774,0.0296 -0.0774,-0.29633 z m 9.96474,-11.61345 c 0.008,-0.19726 0.0483,-0.23739 0.10232,-0.1023 0.0489,0.12223 0.0429,0.26828 -0.0134,0.32455 -0.0563,0.0563 -0.0963,-0.0437 -0.089,-0.22225 z m -7.97692,-15.60689 -1.09577,-1.143 1.143,1.09578 c 0.62865,0.60267 1.143,1.11702 1.143,1.143 0,0.12463 -0.17242,-0.0341 -1.19023,-1.09578 z m -30.61143,-3.51367 c 0.003,-0.2794 0.0414,-0.3732 0.0843,-0.20844 0.0429,0.16476 0.0401,0.39336 -0.006,0.508 -0.0464,0.11464 -0.0815,-0.0202 -0.0781,-0.29956 z"
         id="path931" />
      <path
         style="fill:#ee7c11;stroke-width:0.169333"
         d="m 136.96817,155.13915 c -0.46567,-0.2245 -1.76107,-0.76746 -2.87867,-1.20659 -1.1176,-0.43913 -2.06106,-0.81825 -2.09657,-0.84249 -0.0355,-0.0242 0.64116,-0.7897 1.50372,-1.70105 1.52503,-1.61129 3.97632,-4.72813 4.99853,-6.35568 0.5061,-0.80581 0.85841,-1.06377 0.69421,-0.50831 -0.49832,1.68575 -1.12056,6.80981 -1.12056,9.22763 0,1.00176 -0.0571,1.81536 -0.127,1.80802 -0.0699,-0.007 -0.508,-0.19704 -0.97366,-0.42153 z m -52.883903,-5.82731 c -1.347439,-0.48481 -3.591922,-2.05825 -5.409426,-3.79215 -3.799331,-3.62455 -7.449525,-8.73259 -10.784477,-15.09166 -1.881534,-3.5877 -5.242266,-10.57238 -5.137425,-10.67722 0.0509,-0.0509 2.139749,0.92328 4.641885,2.16484 6.724305,3.3366 10.612582,4.79653 13.296987,4.9926 1.200397,0.0877 1.38091,0.0555 2.423993,-0.43265 2.717296,-1.27158 6.310759,-4.68106 11.941281,-11.3299 1.045019,-1.23402 1.971521,-2.24367 2.058895,-2.24367 0.08737,0 0.121013,0.24765 0.07475,0.55033 -0.04626,0.30269 -0.127706,1.42664 -0.180989,2.49767 -0.703263,14.13667 -2.212191,21.97919 -5.440917,28.27867 -1.691171,3.2996 -3.14411,4.87667 -4.824903,5.23714 -1.158731,0.24851 -1.614297,0.22213 -2.659654,-0.154 z M 192.5095,136.09281 c -2.12902,-1.41583 -2.00529,-1.39755 -9.73666,-1.4378 -8.65778,-0.0451 -12.40751,-0.36513 -13.59002,-1.16002 -0.72841,-0.48963 -1.43944,-1.5916 -2.74374,-4.25229 -1.37276,-2.80033 -2.60655,-5.74697 -4.13965,-9.88665 -0.66778,-1.80313 -1.32698,-3.49661 -1.46487,-3.76327 -0.39056,-0.75526 -1.25396,-1.66796 -2.32527,-2.45805 -0.53912,-0.3976 -0.98207,-0.77926 -0.98433,-0.84813 -0.002,-0.0689 0.50147,-0.29551 1.11942,-0.50363 3.27949,-1.10452 5.7335,-3.866 6.16964,-6.94264 0.20668,-1.458 -0.008,-3.10211 -0.58324,-4.46909 -0.2328,-0.553119 -0.42328,-1.080276 -0.42328,-1.171458 0,-0.234386 1.86998,-1.089577 3.47133,-1.587531 2.02626,-0.630081 4.14506,-0.863635 6.73837,-0.742762 3.85726,0.179785 7.43672,1.184326 11.63083,3.264091 4.15659,2.06116 6.91222,4.08663 10.25754,7.53959 2.55947,2.64182 3.97088,4.55886 5.28345,7.17619 1.66162,3.31338 2.67027,7.74991 2.3279,10.23923 l -0.1172,0.85211 -1.46577,0.002 c -3.14418,0.004 -5.42469,1.18501 -7.00176,3.62504 -1.03094,1.59506 -1.36351,2.87747 -1.35389,5.22062 0.004,1.09432 -0.006,1.98751 -0.0223,1.98488 -0.0168,-0.003 -0.48768,-0.30883 -1.04648,-0.68044 z m 0.85702,-0.71578 c -0.31654,-2.95587 1.10114,-6.37107 3.32394,-8.00741 1.48245,-1.09131 2.60227,-1.45988 4.73234,-1.55757 l 1.8013,-0.0826 0.10555,-0.79568 c 0.25781,-1.94344 -0.50177,-5.89546 -1.65913,-8.6323 -2.08766,-4.93681 -6.66167,-10.14212 -12.12643,-13.80013 -1.9321,-1.29331 -6.10506,-3.330411 -8.31955,-4.061325 -3.32156,-1.096317 -4.93218,-1.356196 -8.3577,-1.348549 -2.75425,0.0061 -3.21106,0.05035 -4.7399,0.458648 -1.44407,0.385658 -4.15011,1.483082 -4.15011,1.683062 0,0.0351 0.18901,0.528956 0.42001,1.097454 1.35246,3.32844 0.66694,6.74941 -1.85859,9.27495 -1.01002,1.01002 -3.42609,2.44583 -4.12669,2.4524 -0.77009,0.007 -0.66438,0.29695 0.39107,1.07191 1.6555,1.21556 2.09152,1.94281 3.61979,6.03749 1.69582,4.54361 2.97766,7.59425 4.29843,10.2298 1.35212,2.69811 2.0415,3.75146 2.66685,4.07484 1.17383,0.60701 3.70215,0.79554 12.1998,0.9097 l 8.21267,0.11033 1.12981,0.53526 c 0.62138,0.2944 1.42013,0.73255 1.77497,0.97367 0.35484,0.24112 0.67445,0.43841 0.71025,0.43841 0.0358,0 0.0139,-0.47806 -0.0487,-1.06234 z M 12.359384,135.14389 c 0.18933,-2.58842 -0.751562,-5.25319 -2.477735,-7.01739 -1.5655035,-1.59998 -3.4750965,-2.35513 -5.955559,-2.35513 H 2.4328241 v -1.84397 c 0,-4.93082 1.9912141,-9.77304 5.961328,-14.4967 5.5182639,-6.56566 13.7363389,-11.213688 21.6945929,-12.270162 3.679675,-0.488483 7.901629,0.142185 10.80668,1.614287 0.664303,0.336627 0.824758,0.494216 0.730663,0.717612 -1.34419,3.191313 -1.376563,5.347513 -0.118057,7.863123 1.035924,2.07069 3.280862,3.92819 5.671129,4.69238 0.34925,0.11166 0.631343,0.25426 0.626874,0.31689 -0.0045,0.0626 -0.434657,0.41867 -0.955971,0.7912 -1.46346,1.0458 -2.147452,2.09102 -3.118584,4.76557 -1.491043,4.10641 -3.030081,7.85378 -4.371384,10.64377 -1.550271,3.22465 -2.370589,4.5548 -3.010969,4.88229 -1.292354,0.66092 -5.381828,0.95371 -13.366796,0.95703 -5.949527,0.002 -6.544076,0.029 -7.535335,0.33688 -0.591894,0.18381 -1.34287,0.51447 -1.668837,0.7348 -0.325967,0.22032 -0.800416,0.53472 -1.054332,0.69865 l -0.461666,0.29805 z"
         id="path929" />
      <path
         style="fill:#0ca3c8;stroke-width:0.169333"
         d="m 124.18249,114.58997 c -1.47173,-1.08557 -7.20699,-6.71633 -10.67003,-10.47562 -2.10366,-2.28362 -2.97608,-2.85992 -4.94996,-3.26987 -0.53552,-0.11121 -0.97367,-0.25601 -0.97367,-0.32177 0,-0.0658 0.52758,-0.628888 1.17239,-1.251405 3.61177,-3.48687 3.86288,-8.67858 0.58594,-12.114118 -0.50142,-0.525677 -0.91166,-1.052889 -0.91166,-1.17158 0,-0.370368 2.53331,-2.839319 3.84065,-3.743088 5.8374,-4.03539 14.9828,-5.006303 23.67784,-2.513738 3.83753,1.100087 7.52281,2.865271 10.20971,4.890265 1.60078,1.206439 3.94687,3.616275 4.92991,5.06386 0.81763,1.204016 2.12203,3.880192 2.29393,4.706356 0.11135,0.535164 0.10619,0.539853 -1.34295,1.218941 -3.1286,1.466112 -4.83176,4.159796 -4.83176,7.641827 0,1.53177 0.31805,2.85069 1.02524,4.25164 0.28652,0.56758 0.48648,1.06642 0.44437,1.10854 -0.0421,0.0421 -0.72989,-0.0148 -1.52839,-0.12653 -2.01856,-0.28238 -2.74467,-0.0984 -6.35588,1.61027 -6.38768,3.0224 -12.29831,5.29589 -14.22169,5.4703 -0.95504,0.0866 -0.95658,0.086 -2.39399,-0.97428 z"
         id="path927" />
      <path
         style="fill:#85bb23;stroke-width:0.169333"
         d="m 96.751497,182.30593 c -12.491738,-0.78203 -24.640234,-4.61336 -33.104669,-10.44039 -1.498598,-1.03165 -3.132667,-2.3646 -3.132667,-2.55538 0,-0.17 3.517899,-2.72946 3.751545,-2.72946 0.103872,0 0.845317,0.48697 1.647657,1.08215 7.507386,5.56904 18.276477,9.13061 30.558505,10.10637 3.21786,0.25565 11.240542,0.11333 14.330632,-0.25422 11.20835,-1.33316 21.21365,-4.90814 27.81211,-9.93751 0.71928,-0.54823 1.40508,-0.99587 1.524,-0.99475 0.34133,0.003 3.68756,2.53745 3.68756,2.79274 0,0.27647 -2.55133,2.21803 -4.65703,3.544 -2.17188,1.36764 -6.37712,3.45903 -9.14364,4.5474 -9.8764,3.88546 -21.50125,5.57606 -33.274003,4.83905 z M 67.455381,154.34637 c -0.0022,-2.08524 -0.28995,-4.99191 -0.767026,-7.747 -0.233845,-1.35044 -0.466536,-2.58869 -0.517094,-2.75167 -0.219576,-0.70786 0.296898,-0.17808 1.320663,1.35467 1.540521,2.30641 3.2194,4.42974 4.961213,6.27458 0.855267,0.90585 1.423145,1.63734 1.335976,1.72087 -0.08339,0.0799 -0.799318,0.39196 -1.590951,0.69345 -0.791633,0.30149 -2.109502,0.84155 -2.928597,1.20013 -0.819094,0.35858 -1.562044,0.65197 -1.651,0.65197 -0.08957,0 -0.162384,-0.62331 -0.163184,-1.397 z m 9.847311,-39.17125 c -2.96735,-0.87716 -7.276117,-2.64294 -12.378792,-5.07298 -3.548279,-1.68979 -4.34379,-1.88856 -6.393728,-1.59757 -0.78181,0.11098 -1.460334,0.16292 -1.50783,0.11542 -0.0475,-0.0475 0.141789,-0.53831 0.420634,-1.0907 0.690238,-1.36735 1.039185,-2.81476 1.039185,-4.31046 0,-3.443294 -1.65923,-6.06566 -4.799649,-7.58571 -1.472571,-0.712766 -1.48338,-0.722597 -1.37376,-1.249754 0.06077,-0.292236 0.440517,-1.234933 0.843889,-2.094886 2.339415,-4.987425 6.828393,-8.874965 13.138453,-11.378151 2.380195,-0.944218 5.87863,-1.901745 8.193068,-2.242457 2.223157,-0.327274 8.060003,-0.285469 9.990667,0.07156 3.483223,0.644128 6.429411,1.795746 8.956288,3.500865 1.430593,0.965354 3.82838,3.274727 3.82838,3.687215 0,0.14259 -0.421127,0.714123 -0.935836,1.270071 -3.228543,3.48721 -3.010159,8.361577 0.536648,11.978046 0.685219,0.69868 1.245855,1.319831 1.245855,1.380331 0,0.0605 -0.43815,0.19623 -0.973667,0.30161 -2.128608,0.41889 -2.763563,0.88042 -5.997606,4.35956 -4.13776,4.45133 -7.164157,7.30979 -9.995492,9.44083 -1.479534,1.11358 -1.712723,1.14501 -3.836707,0.51716 z"
         id="path925" />
      <path
         style="fill:#8c4091;stroke-width:0.169333"
         d="m 51.527536,163.19198 c -3.977175,-0.47689 -9.633352,-2.92379 -15.127691,-6.54434 -2.962155,-1.95195 -4.970597,-3.4936 -8.981644,-6.89421 -5.722742,-4.85181 -6.187312,-5.26358 -6.188361,-5.48508 -8.47e-4,-0.1685 0.460766,-0.18661 2.157985,-0.0847 1.187451,0.0713 4.978401,0.12607 8.424334,0.12166 5.809755,-0.007 6.390632,-0.0352 7.988499,-0.38166 0.94774,-0.2055 2.05264,-0.51512 2.455333,-0.68805 2.368346,-1.01705 5.003188,-6.10678 8.277141,-15.98894 0.720302,-2.17418 1.298877,-3.66382 1.408789,-3.62718 0.221466,0.0738 3.539741,9.771 4.599221,13.44056 0.801958,2.77761 1.567229,6.27932 2.047733,9.36996 0.431571,2.7759 0.440648,9.16204 0.01582,11.13027 -0.426883,1.97775 -0.920151,3.15966 -1.677992,4.02061 -1.207389,1.37167 -2.981283,1.90098 -5.399168,1.61107 z m 3.483291,-0.42152 c 1.183004,-0.49683 1.961343,-1.26378 2.54547,-2.50826 0.963637,-2.05302 1.180867,-3.53281 1.172932,-7.99017 -0.0075,-4.18926 -0.162925,-5.61479 -1.114207,-10.21663 -0.677772,-3.27873 -1.646296,-6.57121 -3.760321,-12.78318 -1.684813,-4.95074 -1.899893,-5.51685 -2.032356,-5.34941 -0.0307,0.0388 -0.569366,1.63266 -1.197041,3.54189 -3.411076,10.37567 -6.148269,15.33635 -8.915722,16.15819 -2.655947,0.78874 -3.5091,0.85981 -10.320756,0.85981 -3.585634,0 -7.262284,-0.0587 -8.170334,-0.13042 -1.086769,-0.0858 -1.651,-0.0719 -1.651,0.0409 0,0.34862 9.235432,8.08 12.416359,10.39428 8.324754,6.05666 17.405087,9.50403 21.026976,7.98295 z m 95.842673,0.25171 c -0.87136,-0.27663 -2.17434,-1.39833 -2.65899,-2.28904 -1.77302,-3.25848 -1.95256,-10.16221 -0.46005,-17.68976 0.69315,-3.49593 1.38943,-5.93511 3.55278,-12.446 2.11552,-6.36696 2.42092,-7.19556 2.58829,-7.02243 0.0424,0.0439 0.47437,1.29896 0.95992,2.78909 2.80355,8.60416 5.34819,14.10611 7.42057,16.04458 0.90227,0.84397 1.92637,1.24589 4.26081,1.67221 1.3068,0.23864 11.16461,0.33122 15.74801,0.14788 1.5019,-0.0601 2.11666,-0.0295 2.11666,0.10532 0,0.18393 -5.60439,5.04647 -9.23014,8.00835 -6.1627,5.03432 -13.09267,8.89771 -18.61786,10.37927 -1.43287,0.38422 -4.84735,0.56488 -5.68,0.30053 z M 99.426989,148.03308 c -0.04966,-0.0497 0.204607,-0.80648 0.565032,-1.68183 0.806859,-1.95958 1.715979,-5.08238 2.259569,-7.76149 0.39102,-1.9272 0.50638,-2.29636 0.66731,-2.13544 0.0393,0.0393 0.27271,1.04858 0.51876,2.24291 0.57992,2.81492 1.30212,5.31685 2.13146,7.38397 0.36577,0.91171 0.66504,1.74416 0.66504,1.8499 0,0.137 -0.96535,0.19227 -3.35844,0.19227 -1.84715,0 -3.399074,-0.0406 -3.448731,-0.0903 z"
         id="path923" />
      <path
         style="fill:#e41a1a;stroke-width:0.169333"
         d="m 192.70495,136.00096 c -0.35484,-0.24112 -1.15359,-0.67927 -1.77497,-0.97367 l -1.12981,-0.53526 -8.21267,-0.11033 c -8.49765,-0.11416 -11.02597,-0.30269 -12.1998,-0.9097 -1.25098,-0.64691 -3.8926,-6.07202 -6.96528,-14.30464 -1.52827,-4.09468 -1.96429,-4.82193 -3.61979,-6.03749 -1.05545,-0.77496 -1.16116,-1.0647 -0.39107,-1.07191 0.7006,-0.007 3.11667,-1.44238 4.12669,-2.4524 2.52553,-2.52554 3.21105,-5.94651 1.85859,-9.27495 -0.231,-0.568498 -0.42001,-1.062353 -0.42001,-1.097454 0,-0.19998 2.70604,-1.297404 4.15011,-1.683062 1.52884,-0.408296 1.98565,-0.452499 4.7399,-0.458648 2.54323,-0.0057 3.33842,0.05617 4.8017,0.37344 5.05336,1.095681 10.53477,3.738954 14.58488,7.033174 5.4332,4.41917 9.02547,9.50211 10.42711,14.75397 0.48173,1.805 0.79715,4.56584 0.64912,5.68172 l -0.10555,0.79568 -1.8013,0.0826 c -2.13007,0.0977 -3.24989,0.46626 -4.73234,1.55757 -2.2228,1.63634 -3.64048,5.05154 -3.32394,8.00741 0.0626,0.58428 0.0845,1.06234 0.0487,1.06234 -0.0358,0 -0.35541,-0.19729 -0.71025,-0.43841 z"
         id="path921" />
      <path
         style="fill:#324b9a;stroke-width:0.169333"
         d="m 51.539494,163.02201 c -5.828112,-0.70976 -13.940918,-5.01575 -21.924811,-11.63691 -4.277518,-3.54741 -8.047191,-6.82272 -8.047191,-6.99187 0,-0.1128 0.564231,-0.1268 1.651,-0.0409 0.90805,0.0717 4.5847,0.13042 8.170334,0.13042 6.811656,0 7.664809,-0.0711 10.320756,-0.85981 2.767453,-0.82184 5.504646,-5.78252 8.915722,-16.15819 0.627675,-1.90923 1.166343,-3.50308 1.197041,-3.54189 0.132463,-0.16744 0.347543,0.39867 2.032356,5.34941 2.735758,8.03889 3.725469,11.75891 4.564841,17.15781 0.433403,2.78769 0.440387,9.15136 0.01226,11.176 -0.748033,3.53752 -2.246608,5.2222 -4.86031,5.4639 -0.512234,0.0474 -1.426634,0.0258 -2.032,-0.0479 z"
         id="path919" />
    </g>
  </g>
</svg>
